<?xml version="1.0" encoding="UTF-8"?>
<svg xmlns="http://www.w3.org/2000/svg" xmlns:xlink="http://www.w3.org/1999/xlink" width="56px" height="50px" viewBox="0 0 56 50" version="1.1">
<g id="surface1">
<path style=" stroke:none;fill-rule:nonzero;fill:#004D47;fill-opacity:1;" d="M 55.980469 24.953125 C 55.980469 26.710938 54.523438 28.085938 52.871094 28.085938 L 49.757812 28.085938 L 49.828125 43.730469 C 49.847656 47.195312 47.054688 50.007812 43.605469 50.007812 L 12.453125 50.007812 C 9.023438 50.007812 6.230469 47.207031 6.230469 43.757812 L 6.230469 28.097656 L 3.121094 28.097656 C 1.371094 28.097656 0.0078125 26.730469 0.0078125 24.960938 C 0.0078125 24.082031 0.300781 23.300781 0.980469 22.617188 L 25.898438 0.78125 C 26.582031 0.0976562 27.359375 0 28.039062 0 C 28.71875 0 29.496094 0.195312 30.082031 0.683594 L 40.445312 9.835938 L 40.445312 6.25 C 40.445312 4.523438 41.835938 3.125 43.554688 3.125 L 46.667969 3.125 C 48.386719 3.125 49.777344 4.523438 49.777344 6.25 L 49.777344 18.066406 L 54.910156 22.597656 C 55.6875 23.28125 56.078125 24.0625 55.980469 24.941406 Z M 24.109375 18.75 C 22.816406 18.75 21.777344 19.796875 21.777344 21.09375 L 21.777344 28.90625 C 21.777344 30.203125 22.816406 31.25 24.109375 31.25 L 31.890625 31.25 C 33.183594 31.25 34.222656 30.203125 34.222656 28.90625 L 34.222656 21.09375 C 34.222656 19.796875 33.183594 18.75 31.890625 18.75 Z M 24.109375 18.75 "/>
</g>
</svg>
