<?xml version="1.0" encoding="UTF-8"?>
<svg xmlns="http://www.w3.org/2000/svg" xmlns:xlink="http://www.w3.org/1999/xlink" width="38px" height="50px" viewBox="0 0 38 50" version="1.1">
<g id="surface1">
<path style=" stroke:none;fill-rule:nonzero;fill:#DED3A6;fill-opacity:1;" d="M 19 4.6875 C 19 2.097656 21.125 0 23.75 0 C 26.375 0 28.5 2.097656 28.5 4.6875 C 28.5 7.277344 26.375 9.375 23.75 9.375 C 21.125 9.375 19 7.277344 19 4.6875 Z M 24.078125 22.53125 L 22.1875 29.980469 L 27.105469 34.835938 C 27.996094 35.710938 28.5 36.90625 28.5 38.144531 L 28.5 46.875 C 28.5 48.601562 27.085938 50 25.332031 50 C 23.582031 50 22.167969 48.601562 22.167969 46.875 L 22.167969 38.796875 L 14.855469 31.582031 C 13.289062 30.039062 12.65625 27.8125 13.179688 25.691406 L 15.199219 17.488281 C 16.019531 14.160156 19.425781 12.128906 22.789062 12.957031 C 24.671875 13.425781 26.3125 14.558594 27.382812 16.152344 L 30.191406 20.3125 L 33.25 20.3125 L 33.25 17.96875 C 33.25 16.671875 34.308594 15.625 35.625 15.625 C 36.941406 15.625 38 16.671875 38 17.96875 L 38 23.417969 C 38 23.429688 38 23.4375 38 23.4375 C 38 23.4375 38 23.457031 38 23.457031 L 38 47.65625 C 38 48.953125 36.941406 50 35.625 50 C 34.308594 50 33.25 48.953125 33.25 47.65625 L 33.25 26.5625 L 29.351562 26.5625 C 27.769531 26.5625 26.285156 25.78125 25.402344 24.472656 L 24.085938 22.519531 Z M 8.027344 46.085938 L 11.609375 32.617188 C 11.90625 33.027344 12.242188 33.417969 12.605469 33.78125 L 16.753906 37.871094 L 14.140625 47.664062 C 13.695312 49.335938 11.964844 50.332031 10.273438 49.890625 C 8.578125 49.453125 7.570312 47.742188 8.015625 46.074219 Z M 13.519531 12.292969 L 10.035156 26.023438 C 9.738281 27.207031 8.558594 27.96875 7.34375 27.773438 L 2.601562 26.992188 C 1.21875 26.765625 0.335938 25.398438 0.703125 24.0625 L 3.15625 15.136719 C 4.097656 11.738281 7.222656 9.375 10.796875 9.375 L 11.210938 9.375 C 12.753906 9.375 13.894531 10.8125 13.519531 12.285156 Z M 13.519531 12.292969 "/>
</g>
</svg>
