<?xml version="1.0" encoding="UTF-8"?>
<svg xmlns="http://www.w3.org/2000/svg" xmlns:xlink="http://www.w3.org/1999/xlink" width="50px" height="50px" viewBox="0 0 50 50" version="1.1">
<g id="surface1">
<path style=" stroke:none;fill-rule:nonzero;fill:#DED3A6;fill-opacity:1;" d="M 25 0 C 25.449219 0 25.898438 0.0976562 26.308594 0.28125 L 44.695312 8.085938 C 46.84375 8.992188 48.445312 11.113281 48.4375 13.671875 C 48.390625 23.359375 44.40625 41.085938 27.578125 49.140625 C 25.945312 49.921875 24.054688 49.921875 22.421875 49.140625 C 5.59375 41.085938 1.609375 23.359375 1.5625 13.671875 C 1.554688 11.113281 3.152344 8.992188 5.304688 8.085938 L 23.703125 0.28125 C 24.101562 0.0976562 24.550781 0 25 0 Z M 25 6.523438 L 25 43.445312 C 38.476562 36.914062 42.101562 22.46875 42.1875 13.808594 Z M 25 6.523438 "/>
</g>
</svg>
