<?xml version="1.0" encoding="UTF-8"?>
<svg xmlns="http://www.w3.org/2000/svg" xmlns:xlink="http://www.w3.org/1999/xlink" width="50px" height="50px" viewBox="0 0 50 50" version="1.1">
<g id="surface1">
<path style="stroke:black; stroke-width:1; fill-rule:nonzero;fill:#fff;fill-opacity:1;" d="M 25 4.6875 C 36.21875 4.6875 45.3125 13.78125 45.3125 25 C 45.3125 36.21875 36.21875 45.3125 25 45.3125 C 13.78125 45.3125 4.6875 36.21875 4.6875 25 C 4.6875 13.78125 13.78125 4.6875 25 4.6875 Z M 25 50 C 38.808594 50 50 38.808594 50 25 C 50 11.191406 38.808594 0 25 0 C 11.191406 0 0 11.191406 0 25 C 0 38.808594 11.191406 50 25 50 Z M 17.089844 17.089844 C 16.171875 18.007812 16.171875 19.492188 17.089844 20.398438 L 21.679688 24.992188 L 17.089844 29.578125 C 16.171875 30.496094 16.171875 31.984375 17.089844 32.890625 C 18.007812 33.796875 19.492188 33.808594 20.398438 32.890625 L 24.992188 28.300781 L 29.578125 32.890625 C 30.496094 33.808594 31.984375 33.808594 32.890625 32.890625 C 33.796875 31.972656 33.808594 30.488281 32.890625 29.578125 L 28.300781 24.988281 L 32.890625 20.398438 C 33.808594 19.480469 33.808594 18 32.890625 17.089844 C 31.972656 16.179688 30.488281 16.171875 29.578125 17.089844 L 24.988281 21.679688 L 20.398438 17.089844 C 19.480469 16.171875 18 16.171875 17.089844 17.089844 Z M 17.089844 17.089844 "/>
</g>
</svg>
