<svg width="73" height="60" viewBox="0 0 73 60" fill="none" xmlns="http://www.w3.org/2000/svg">
<g clip-path="url(#clip0_3_9)">
<path d="M30.6858 24.6705C24.8582 18.6881 16.1588 18.6881 10.3312 24.6705C4.50358 30.6528 4.50358 40.3491 10.3312 46.3315C16.1588 52.3138 24.8582 52.3138 30.6858 46.3315C31.8513 45.135 33.7441 45.135 34.9096 46.3315C36.0752 47.5279 36.0752 49.471 34.9096 50.6675C26.751 59.0428 14.2753 59.0428 6.11666 50.6675C-2.04198 42.2922 -2.04198 28.7193 6.11666 20.344C14.2753 11.9687 26.751 11.9687 34.9096 20.344C36.0752 21.5405 36.0752 23.4836 34.9096 24.68C33.7441 25.8765 31.8513 25.8765 30.6858 24.68V24.6705Z" fill="#1A2902"/>
<path d="M13.2095 37.7208C13.2095 40.1591 14.716 42.1374 16.5727 42.1374H25.1676C26.8189 42.1374 28.1572 40.38 28.1572 38.2116C28.1572 36.313 27.1295 34.7274 25.7655 34.3655C25.8613 34.0373 25.915 33.6784 25.915 33.3042C25.915 31.6787 24.9107 30.3599 23.6729 30.3599C23.2128 30.3599 22.783 30.5439 22.428 30.8567C21.7811 29.3845 20.5736 28.3969 19.1886 28.3969C17.1239 28.3969 15.4517 30.593 15.4517 33.3042C15.4517 33.3871 15.454 33.4699 15.4563 33.5527C14.1484 34.1569 13.2095 35.7947 13.2095 37.7208Z" fill="#778D45"/>
</g>
<g clip-path="url(#clip1_3_9)">
<path d="M41.0191 17.9485C42.4611 17.9485 43.6262 19.0102 43.6262 20.3244V46.4599H59.2691C60.7111 46.4599 61.8762 47.5217 61.8762 48.8359C61.8762 50.1501 60.7111 51.2118 59.2691 51.2118H41.0191C39.577 51.2118 38.4119 50.1501 38.4119 48.8359V20.3244C38.4119 19.0102 39.577 17.9485 41.0191 17.9485Z" fill="#1A2902"/>
</g>
<defs>
<clipPath id="clip0_3_9">
<rect width="35.8048" height="49.0076" fill="white" transform="translate(0 10.9924)"/>
</clipPath>
<clipPath id="clip1_3_9">
<rect width="26.0714" height="38.0153" fill="white" transform="translate(35.8048 15.5725)"/>
</clipPath>
</defs>
</svg>
