<svg width="62" height="49" viewBox="0 0 62 49" fill="none" xmlns="http://www.w3.org/2000/svg">
<mask id="mask0_1_14" style="mask-type:luminance" maskUnits="userSpaceOnUse" x="0" y="-1" width="36" height="50">
<path d="M35.3143 -0.00759888H0V49H35.3143V-0.00759888Z" fill="white"/>
</mask>
<g mask="url(#mask0_1_14)">
<path d="M30.2654 13.6705C24.5176 7.68811 15.9374 7.68811 10.1896 13.6705C4.44186 19.6528 4.44186 29.3491 10.1896 35.3315C15.9374 41.3138 24.5176 41.3138 30.2654 35.3315C31.415 34.135 33.2818 34.135 34.4314 35.3315C35.581 36.5279 35.581 38.471 34.4314 39.6675C26.3845 48.0428 14.0797 48.0428 6.03284 39.6675C-2.01404 31.2922 -2.01404 17.7193 6.03284 9.34401C14.0797 0.968705 26.3845 0.968705 34.4314 9.34401C35.581 10.5405 35.581 12.4836 34.4314 13.68C33.2818 14.8765 31.415 14.8765 30.2654 13.68V13.6705Z" fill="black"/>
<path d="M13.0285 26.7208C13.0285 29.1591 14.5144 31.1374 16.3457 31.1374H24.8228C26.4515 31.1374 27.7715 29.38 27.7715 27.2116C27.7715 25.313 26.7579 23.7274 25.4125 23.3655C25.507 23.0373 25.56 22.6784 25.56 22.3042C25.56 20.6787 24.5695 19.3599 23.3486 19.3599C22.8948 19.3599 22.4709 19.5439 22.1208 19.8567C21.4827 18.3845 20.2918 17.3969 18.9257 17.3969C16.8893 17.3969 15.24 19.593 15.24 22.3042C15.24 22.3871 15.2423 22.4699 15.2446 22.5527C13.9546 23.1569 13.0285 24.7947 13.0285 26.7208Z" fill="white"/>
</g>
<mask id="mask1_1_14" style="mask-type:luminance" maskUnits="userSpaceOnUse" x="35" y="4" width="27" height="39">
<path d="M61.0286 4.57251H35.3143V42.5878H61.0286V4.57251Z" fill="white"/>
</mask>
<g mask="url(#mask1_1_14)">
<path d="M40.4572 6.94852C41.8794 6.94852 43.0286 8.01022 43.0286 9.32442V35.4599H58.4572C59.8794 35.4599 61.0286 36.5217 61.0286 37.8359C61.0286 39.1501 59.8794 40.2118 58.4572 40.2118H40.4572C39.0348 40.2118 37.8857 39.1501 37.8857 37.8359V9.32442C37.8857 8.01022 39.0348 6.94852 40.4572 6.94852Z" fill="black"/>
</g>
</svg>
