<?xml version="1.0" encoding="UTF-8"?>
<svg xmlns="http://www.w3.org/2000/svg" xmlns:xlink="http://www.w3.org/1999/xlink" width="61px" height="70px" viewBox="0 0 61 69" version="1.1">
<g id="surface1">
<path style=" stroke:none;fill-rule:nonzero;fill:rgb(0%,0%,0%);fill-opacity:1;" d="M 28.675781 0.796875 L 8.441406 22.828125 C 7.910156 23.394531 7.625 24.148438 7.625 24.917969 C 7.625 26.644531 9.027344 28.03125 10.769531 28.03125 L 14.160156 28.03125 L 4.167969 37.921875 C 3.59375 38.488281 3.269531 39.269531 3.269531 40.078125 C 3.269531 41.765625 4.644531 43.125 6.34375 43.125 L 10.894531 43.125 L 0.734375 55.1875 C 0.257812 55.753906 0 56.46875 0 57.207031 C 0 58.960938 1.429688 60.375 3.199219 60.375 L 26.144531 60.375 L 26.144531 64.6875 C 26.144531 67.074219 28.089844 69 30.5 69 C 32.910156 69 34.855469 67.074219 34.855469 64.6875 L 34.855469 60.375 L 57.800781 60.375 C 59.570312 60.375 61 58.960938 61 57.207031 C 61 56.46875 60.742188 55.753906 60.265625 55.1875 L 50.105469 43.125 L 54.65625 43.125 C 56.355469 43.125 57.730469 41.765625 57.730469 40.078125 C 57.730469 39.269531 57.40625 38.488281 56.832031 37.921875 L 46.839844 28.03125 L 50.230469 28.03125 C 51.957031 28.03125 53.375 26.644531 53.375 24.917969 C 53.375 24.148438 53.089844 23.394531 52.558594 22.828125 L 32.324219 0.796875 C 31.863281 0.28125 31.195312 0 30.5 0 C 29.804688 0 29.136719 0.28125 28.675781 0.796875 Z M 28.675781 0.796875 "/>
</g>
</svg>
